<!-- Generated by IcoMoon.io -->
<svg version="1.1" xmlns="http://www.w3.org/2000/svg" width="12" height="12" viewBox="0 0 12 12">
<title>instagram-with-circle</title>
<path d="M7.8 6c0 0.994-0.806 1.8-1.8 1.8s-1.8-0.806-1.8-1.8c0-0.103 0.011-0.203 0.029-0.3h-0.629v2.398c0 0.167 0.135 0.302 0.302 0.302h4.197c0.166 0 0.301-0.135 0.301-0.302v-2.398h-0.629c0.019 0.097 0.029 0.197 0.029 0.3zM6 7.2c0.662 0 1.2-0.538 1.2-1.2s-0.538-1.2-1.2-1.2-1.2 0.538-1.2 1.2 0.538 1.2 1.2 1.2zM7.44 4.74h0.719c0.1 0 0.181-0.081 0.181-0.18v-0.719c0-0.1-0.081-0.181-0.181-0.181h-0.719c-0.1 0-0.181 0.081-0.181 0.181v0.719c0.001 0.099 0.082 0.18 0.181 0.18zM6 0.24c-3.181 0-5.76 2.579-5.76 5.76s2.579 5.76 5.76 5.76c3.181 0 5.76-2.579 5.76-5.76s-2.579-5.76-5.76-5.76zM9 8.333c0 0.367-0.3 0.667-0.667 0.667h-4.667c-0.367 0-0.667-0.3-0.667-0.667v-4.667c0-0.367 0.3-0.667 0.667-0.667h4.667c0.367 0 0.667 0.3 0.667 0.667v4.667z"></path>
</svg>
