<!-- Generated by IcoMoon.io -->
<svg version="1.1" xmlns="http://www.w3.org/2000/svg" width="12" height="12" viewBox="0 0 12 12">
<title>twitter</title>
<path d="M10.39 3.748c0.005 0.097 0.007 0.196 0.007 0.293 0 2.994-2.278 6.445-6.444 6.445-1.28 0-2.47-0.375-3.472-1.018 0.178 0.021 0.358 0.032 0.54 0.032 1.062 0 2.038-0.362 2.813-0.969-0.991-0.019-1.828-0.673-2.116-1.573 0.138 0.026 0.28 0.040 0.426 0.040 0.207 0 0.407-0.027 0.597-0.079-1.036-0.209-1.817-1.124-1.817-2.222 0-0.010 0-0.019 0-0.028 0.305 0.17 0.655 0.272 1.026 0.284-0.608-0.407-1.008-1.099-1.008-1.886 0-0.415 0.112-0.804 0.307-1.139 1.117 1.371 2.786 2.272 4.669 2.367-0.038-0.166-0.058-0.338-0.058-0.517 0-1.25 1.013-2.264 2.264-2.264 0.652 0 1.24 0.274 1.654 0.715 0.515-0.102 1-0.29 1.438-0.55-0.169 0.529-0.529 0.973-0.996 1.253 0.458-0.055 0.894-0.176 1.301-0.356-0.304 0.455-0.688 0.853-1.13 1.172z"></path>
</svg>
